# Blender 5.0.1
# www.blender.org
o Milou
v 0.000000 2.178408 0.212339
v 0.000000 -1.219165 0.213085
v 1.149650 2.178408 0.008601
v 1.149650 -1.219165 0.061374
v 0.000000 2.931985 0.212339
v 1.109811 2.931985 0.008601
v 0.000000 -1.760913 0.258579
v 1.139230 -1.760913 0.159380
v 0.000000 -2.200446 0.295627
v 1.036153 -2.200446 0.253617
v 0.000000 -2.576000 0.438321
v 0.843917 -2.583438 0.438321
v 0.000000 -2.958560 0.713493
v 0.575564 -2.958560 0.713493
v 1.149650 2.178408 0.908601
v 1.149650 -1.219165 0.908601
v 0.000000 2.931985 0.428184
v 1.109811 2.931985 0.908601
v 1.139230 -1.760913 0.908601
v 1.036153 -2.200446 0.908601
v 0.843917 -2.583438 0.908601
v 0.000000 -2.958560 0.908601
v 0.575564 -2.958560 0.908601
v 0.000000 -0.580178 0.212339
v 1.149650 -0.580178 0.008601
v 1.149650 -0.580178 0.908601
v 0.460544 2.178409 0.008601
v 0.460544 -1.219165 0.061374
v 0.460544 2.931985 0.008601
v 0.460544 -1.760913 0.159380
v 0.460544 -2.200446 0.253617
v 0.460544 -2.579059 0.438321
v 0.460544 -2.958560 0.713493
v 0.460544 2.931985 0.428184
v 0.460544 -2.958560 0.908601
v 0.460544 -0.580178 0.008601
v 1.137074 2.416285 0.008601
v 0.000000 2.416285 0.212339
v 1.137074 2.416285 0.908601
v 0.460544 2.416285 0.008601
v 0.000000 2.178408 0.351958
v 0.000000 -1.211346 0.346834
v 1.106887 2.177279 0.351958
v 1.107762 -1.213218 0.346834
v 0.000000 2.889559 0.351958
v 1.076179 2.896528 0.351958
v 0.000000 -1.749282 0.346834
v 1.096401 -1.748248 0.346834
v 0.000000 -2.180814 0.349547
v 0.997739 -2.175406 0.349547
v 0.000000 -2.545144 0.489779
v 0.811109 -2.545871 0.471673
v 0.000000 -2.905139 0.740809
v 0.553766 -2.907028 0.735156
v 1.089670 2.176824 0.908601
v 1.089652 -1.218588 0.908601
v 0.000000 2.871985 0.428184
v 1.068519 2.888453 0.908601
v 1.079697 -1.753445 0.908601
v 0.979745 -2.179998 0.908601
v 0.792550 -2.552432 0.908601
v 0.000000 -2.898560 0.908601
v 0.548128 -2.905200 0.908601
v 0.000000 -0.577707 0.351958
v 1.107772 -0.578408 0.351958
v 1.089650 -0.580178 0.908601
v 0.460544 2.178409 0.351958
v 0.460544 -1.211346 0.346834
v 0.460544 2.889559 0.351958
v 0.460544 -1.749282 0.526531
v 0.460597 -2.180875 0.798811
v 0.460703 -2.548208 0.798811
v 0.460664 -2.905117 0.798811
v 0.460544 2.871985 0.428184
v 0.460544 -2.898560 0.908601
v 0.460544 -0.577707 0.351958
v 1.094707 2.414045 0.351958
v 0.000000 2.416285 0.351958
v 1.077157 2.413117 0.908601
v 0.460544 2.416285 0.351958
v 1.120169 -1.219165 0.061374
v 1.110195 -1.760913 0.159380
v 1.011528 -2.200446 0.253617
v 0.827516 -2.583251 0.438321
v 0.570643 -2.958560 0.713493
v 0.570643 -2.958560 0.908601
v 1.120169 2.178408 0.008601
v 1.082034 2.931985 0.008601
v 1.032757 2.931985 0.436396
v 1.120169 -0.580178 0.008601
v 1.108131 2.416285 0.008601
v 1.080074 -1.213138 0.346834
v 1.069199 -1.748292 0.526531
v 0.974759 -2.175640 0.798811
v 0.796118 -2.545971 0.798811
v 0.549783 -2.906946 0.798811
v 0.544381 -2.904916 0.908601
v 1.079236 2.177327 0.351958
v 1.049842 2.896230 0.351958
v 0.996366 2.886499 0.436396
v 1.080083 -0.578378 0.351958
v 1.067577 2.414141 0.351958
v 0.000000 1.811092 0.335532
v 0.000000 1.811092 2.149058
v 0.672512 1.811092 0.335532
v 0.672512 1.811092 2.149058
v 0.000000 0.370161 0.335532
v 0.000000 0.370161 2.149058
v 0.669370 0.370161 0.335532
v 0.669370 0.370161 2.149058
v 0.000000 1.811092 2.074188
v 0.672512 1.811092 2.074188
v 0.669370 0.370161 2.074188
v 0.000000 0.370161 2.074188
v 0.572034 1.811092 0.335532
v 0.572034 1.811092 2.149058
v 0.569362 0.370161 0.335532
v 0.569362 0.370161 2.149058
v 0.569362 0.370161 2.074188
v 0.572034 1.811092 2.074188
v 0.672512 1.811092 1.254774
v 0.669370 0.370161 1.254774
v 0.000000 0.370161 1.254774
v 0.000000 1.811092 1.254774
v 0.572034 1.811092 1.254774
v 0.569362 0.370161 1.254774
v 0.569362 0.572604 2.074188
v 0.000000 0.572604 2.074188
v 0.000000 0.572604 1.254774
v 0.569362 0.572604 1.254774
v 0.000000 0.081895 1.254774
v 0.000000 0.081895 0.335532
v 0.573132 0.081895 0.335532
v 0.573132 0.081895 1.254774
v 0.445933 2.178409 0.015065
v 0.445933 2.931985 0.015065
v 0.445933 2.931985 0.428184
v 0.445933 -0.580178 0.015065
v 0.445933 -1.219165 0.066187
v 0.445933 -1.760913 0.162527
v 0.445933 -2.200446 0.254950
v 0.445933 -2.578962 0.438321
v 0.445933 -2.958560 0.713493
v 0.445933 -2.958560 0.908601
v 0.445933 2.416285 0.015065
v 0.445933 2.178409 0.351958
v 0.445933 2.889559 0.351958
v 0.445933 2.871985 0.428184
v 0.445933 -0.577707 0.351958
v 0.445933 -1.211346 0.346834
v 0.445933 -1.749282 0.346834
v 0.445984 -2.180873 0.349547
v 0.446090 -2.548110 0.489782
v 0.446051 -2.905118 0.740768
v 0.445933 -2.898560 0.908601
v 0.445933 2.416285 0.351958
v 0.000000 -2.188755 0.294642
v 1.038895 -2.188755 0.251110
v 1.038895 -2.188755 0.908601
v 0.460544 -2.188755 0.251110
v 0.000000 -2.169335 0.349475
v 1.000363 -2.164044 0.349475
v 0.982404 -2.168652 0.908601
v 0.460595 -2.169395 0.529172
v 0.977271 -2.164273 0.529172
v 1.014152 -2.188755 0.251110
v 0.445982 -2.169393 0.349475
v 0.445933 -2.188755 0.252491
v 0.000000 -1.735837 0.256473
v 1.139712 -1.735837 0.154844
v 1.139712 -1.735837 0.908601
v 0.460544 -1.735837 0.154844
v 0.000000 -1.724383 0.346834
v 1.096927 -1.723483 0.346834
v 1.080158 -1.728688 0.908601
v 0.460544 -1.724383 0.346834
v 1.069702 -1.723521 0.346834
v 1.110657 -1.735837 0.154844
v 0.445933 -1.724383 0.346834
v 0.445933 -1.735837 0.158068
v 0.670092 0.701141 0.335532
v 0.670092 0.701141 2.149058
v 0.000000 0.701141 0.335532
v 0.000000 0.701141 2.149058
v 0.000000 0.701141 2.074188
v 0.670092 0.701141 2.074188
v 0.569976 0.701141 2.149058
v 0.569976 0.701141 0.335532
v 0.670092 0.701141 1.254774
v 0.000000 0.701141 1.254774
v 0.671613 1.398703 0.335532
v 0.000000 1.398703 2.149058
v 0.000000 1.398703 2.074188
v 0.571270 1.398703 0.335532
v 0.000000 1.398703 1.254774
v 0.671613 1.398703 2.149058
v 0.000000 1.398703 0.335532
v 0.671613 1.398703 2.074188
v 0.571270 1.398703 2.149058
v 0.671613 1.398703 1.254774
v 0.595548 1.398868 2.074188
v 0.594028 0.701307 2.074188
v 0.595548 1.398868 1.254774
v 0.594028 0.701307 1.254774
v 0.594028 0.701307 0.335532
v 0.595548 1.398868 0.335532
v 0.000000 3.601379 -0.392207
v 0.000000 3.601379 0.751623
v 0.232478 3.601379 -0.392207
v 0.232478 3.601379 0.751623
v 0.000000 3.122990 -0.392207
v 0.000000 3.122990 0.751623
v 0.207230 3.122990 -0.392207
v 0.207230 3.122990 0.751623
v 0.252676 3.437297 -0.392207
v 0.252676 3.437297 0.751623
v 0.000000 3.437297 -0.392207
v 0.000000 3.437297 0.751623
v 0.094877 2.943731 0.751623
v 0.094877 2.943731 -0.392207
v 0.000000 2.943731 -0.392207
v 0.000000 2.943731 0.751623
v 0.113813 3.786950 -0.392207
v 0.000000 3.786950 -0.392207
v 0.000000 3.786950 0.751623
v 0.113813 3.786950 0.751623
v -1.149650 2.178408 0.008601
v -1.149650 -1.219165 0.061374
v -1.109811 2.931985 0.008601
v -1.139230 -1.760913 0.159380
v -1.036153 -2.200446 0.253617
v -0.843917 -2.583438 0.438321
v -0.575564 -2.958560 0.713493
v -1.149650 2.178408 0.908601
v -1.149650 -1.219165 0.908601
v -1.109811 2.931985 0.908601
v -1.139230 -1.760913 0.908601
v -1.036153 -2.200446 0.908601
v -0.843917 -2.583438 0.908601
v -0.575564 -2.958560 0.908601
v -1.149650 -0.580178 0.008601
v -1.149650 -0.580178 0.908601
v -0.460544 2.178409 0.008601
v -0.460544 -1.219165 0.061374
v -0.460544 2.931985 0.008601
v -0.460544 -1.760913 0.159380
v -0.460544 -2.200446 0.253617
v -0.460544 -2.579059 0.438321
v -0.460544 -2.958560 0.713493
v -0.460544 2.931985 0.428184
v -0.460544 -2.958560 0.908601
v -0.460544 -0.580178 0.008601
v -1.137074 2.416285 0.008601
v -1.137074 2.416285 0.908601
v -0.460544 2.416285 0.008601
v -1.106887 2.177279 0.351958
v -1.107762 -1.213218 0.346834
v -1.076179 2.896528 0.351958
v -1.096401 -1.748248 0.346834
v -0.997739 -2.175406 0.349547
v -0.811109 -2.545871 0.471673
v -0.553766 -2.907028 0.735156
v -1.089670 2.176824 0.908601
v -1.089652 -1.218588 0.908601
v -1.068519 2.888453 0.908601
v -1.079697 -1.753445 0.908601
v -0.979745 -2.179998 0.908601
v -0.792550 -2.552432 0.908601
v -0.548128 -2.905200 0.908601
v -1.107772 -0.578408 0.351958
v -1.089650 -0.580178 0.908601
v -0.460544 2.178409 0.351958
v -0.460544 -1.211346 0.346834
v -0.460544 2.889559 0.351958
v -0.460544 -1.749282 0.526531
v -0.460597 -2.180875 0.798811
v -0.460703 -2.548208 0.798811
v -0.460664 -2.905117 0.798811
v -0.460544 2.871985 0.428184
v -0.460544 -2.898560 0.908601
v -0.460544 -0.577707 0.351958
v -1.094707 2.414045 0.351958
v -1.077157 2.413117 0.908601
v -0.460544 2.416285 0.351958
v -1.120169 -1.219165 0.061374
v -1.110195 -1.760913 0.159380
v -1.011528 -2.200446 0.253617
v -0.827516 -2.583251 0.438321
v -0.570643 -2.958560 0.713493
v -0.570643 -2.958560 0.908601
v -1.120169 2.178408 0.008601
v -1.082034 2.931985 0.008601
v -1.032757 2.931985 0.436396
v -1.120169 -0.580178 0.008601
v -1.108131 2.416285 0.008601
v -1.080074 -1.213138 0.346834
v -1.069199 -1.748292 0.526531
v -0.974759 -2.175640 0.798811
v -0.796118 -2.545971 0.798811
v -0.549783 -2.906946 0.798811
v -0.544381 -2.904916 0.908601
v -1.079236 2.177327 0.351958
v -1.049842 2.896230 0.351958
v -0.996366 2.886499 0.436396
v -1.080083 -0.578378 0.351958
v -1.067577 2.414141 0.351958
v -0.672512 1.811092 0.335532
v -0.672512 1.811092 2.149058
v -0.669370 0.370161 0.335532
v -0.669370 0.370161 2.149058
v -0.672512 1.811092 2.074188
v -0.669370 0.370161 2.074188
v -0.572034 1.811092 0.335532
v -0.572034 1.811092 2.149058
v -0.569362 0.370161 0.335532
v -0.569362 0.370161 2.149058
v -0.569362 0.370161 2.074188
v -0.572034 1.811092 2.074188
v -0.672512 1.811092 1.254774
v -0.669370 0.370161 1.254774
v -0.572034 1.811092 1.254774
v -0.569362 0.370161 1.254774
v -0.569362 0.572604 2.074188
v -0.569362 0.572604 1.254774
v -0.573132 0.081895 0.335532
v -0.573132 0.081895 1.254774
v -0.445933 2.178409 0.015065
v -0.445933 2.931985 0.015065
v -0.445933 2.931985 0.428184
v -0.445933 -0.580178 0.015065
v -0.445933 -1.219165 0.066187
v -0.445933 -1.760913 0.162527
v -0.445933 -2.200446 0.254950
v -0.445933 -2.578962 0.438321
v -0.445933 -2.958560 0.713493
v -0.445933 -2.958560 0.908601
v -0.445933 2.416285 0.015065
v -0.445933 2.178409 0.351958
v -0.445933 2.889559 0.351958
v -0.445933 2.871985 0.428184
v -0.445933 -0.577707 0.351958
v -0.445933 -1.211346 0.346834
v -0.445933 -1.749282 0.346834
v -0.445984 -2.180873 0.349547
v -0.446090 -2.548110 0.489782
v -0.446051 -2.905118 0.740768
v -0.445933 -2.898560 0.908601
v -0.445933 2.416285 0.351958
v -1.038895 -2.188755 0.251110
v -1.038895 -2.188755 0.908601
v -0.460544 -2.188755 0.251110
v -1.000363 -2.164044 0.349475
v -0.982404 -2.168652 0.908601
v -0.460595 -2.169395 0.529172
v -0.977271 -2.164273 0.529172
v -1.014152 -2.188755 0.251110
v -0.445982 -2.169393 0.349475
v -0.445933 -2.188755 0.252491
v -1.139712 -1.735837 0.154844
v -1.139712 -1.735837 0.908601
v -0.460544 -1.735837 0.154844
v -1.096927 -1.723483 0.346834
v -1.080158 -1.728688 0.908601
v -0.460544 -1.724383 0.346834
v -1.069702 -1.723521 0.346834
v -1.110657 -1.735837 0.154844
v -0.445933 -1.724383 0.346834
v -0.445933 -1.735837 0.158068
v -0.670092 0.701141 0.335532
v -0.670092 0.701141 2.149058
v -0.670092 0.701141 2.074188
v -0.569976 0.701141 2.149058
v -0.569976 0.701141 0.335532
v -0.670092 0.701141 1.254774
v -0.671613 1.398703 0.335532
v -0.571270 1.398703 0.335532
v -0.671613 1.398703 2.149058
v -0.671613 1.398703 2.074188
v -0.571270 1.398703 2.149058
v -0.671613 1.398703 1.254774
v -0.595548 1.398868 2.074188
v -0.594028 0.701307 2.074188
v -0.595548 1.398868 1.254774
v -0.594028 0.701307 1.254774
v -0.594028 0.701307 0.335532
v -0.595548 1.398868 0.335532
v -0.232478 3.601379 -0.392207
v -0.232478 3.601379 0.751623
v -0.207230 3.122990 -0.392207
v -0.207230 3.122990 0.751623
v -0.252676 3.437297 -0.392207
v -0.252676 3.437297 0.751623
v -0.094877 2.943731 0.751623
v -0.094877 2.943731 -0.392207
v -0.113813 3.786950 -0.392207
v -0.113813 3.786950 0.751623
vn -0.0000 -0.0823 -0.9966
vn -0.0000 -0.0000 -1.0000
vn -0.2113 -0.1269 -0.9692
vn -0.0915 -0.1451 -0.9852
vn -0.0431 -0.3965 -0.9170
vn -0.0019 -0.5854 -0.8107
vn 1.0000 -0.0000 -0.0000
vn 0.8133 -0.5818 -0.0000
vn -0.0000 1.0000 -0.0000
vn 0.9736 -0.2283 -0.0000
vn 0.9986 0.0528 -0.0000
vn 0.8937 -0.4486 -0.0000
vn -0.0000 -1.0000 -0.0000
vn 0.9998 -0.0192 -0.0000
vn -0.4046 -0.0000 -0.9145
vn -0.0052 -0.5880 -0.8089
vn -0.0020 -0.4361 -0.8999
vn -0.0000 -0.2096 -0.9778
vn -0.0000 -0.1780 -0.9840
vn -0.3590 -0.0756 -0.9303
vn -0.0000 -0.0081 1.0000
vn -0.0000 -0.0000 1.0000
vn -0.0000 0.0063 1.0000
vn 0.0012 0.3580 0.9337
vn 0.0019 0.5735 0.8192
vn -0.9995 -0.0002 -0.0317
vn -0.8227 0.5678 -0.0282
vn -0.0000 -0.9744 -0.2247
vn -0.9736 0.2264 -0.0281
vn -0.9993 -0.0283 -0.0229
vn -0.8948 0.4457 -0.0278
vn -0.0948 0.9953 -0.0173
vn -0.9993 0.0199 -0.0308
vn -0.9995 0.0001 -0.0324
vn 0.0931 0.9945 -0.0469
vn 0.0198 -0.9867 -0.1611
vn -0.0100 0.9991 0.0423
vn -0.0015 0.9906 0.1369
vn -0.9982 -0.0521 -0.0312
vn -1.0000 -0.0000 -0.0000
vn -0.0149 0.0051 0.9999
vn -0.7483 0.6530 0.1169
vn 0.6655 0.7186 0.2019
vn 0.8373 0.5433 0.0617
vn 0.8989 -0.4360 0.0438
vn 0.8263 -0.5617 0.0401
vn 0.1065 -0.9942 -0.0175
vn 0.0472 0.9982 -0.0378
vn -0.0020 -0.4337 -0.9011
vn -0.0052 -0.5890 -0.8081
vn 1.0000 -0.0022 -0.0000
vn 0.9999 0.0131 -0.0000
vn -0.0000 0.9992 -0.0391
vn -0.9965 0.0280 0.0793
vn -0.9992 0.0071 0.0385
vn -0.8771 0.4787 0.0408
vn -0.8541 0.5012 0.1389
vn -0.3598 -0.0378 -0.9323
vn -0.0019 -0.5870 -0.8096
vn -0.0424 -0.4368 -0.8985
vn -0.0905 -0.2069 -0.9742
vn -0.2098 -0.1726 -0.9624
vn -0.1499 -0.2054 -0.9671
vn -0.9967 0.0004 0.0810
vn 0.9666 -0.2176 0.1351
vn -0.9736 0.2264 -0.0294
vn -0.1515 -0.1440 -0.9779
vn -0.2613 -0.1704 -0.9501
vn -0.9994 0.0199 -0.0296
vn -0.2631 -0.1252 -0.9566
vn 0.0022 1.0000 -0.0000
vn -0.0022 -1.0000 -0.0000
vn 0.9897 -0.1431 -0.0000
vn 0.9925 0.1222 -0.0000
vn 0.8473 -0.5311 -0.0000
vn 0.8425 0.5387 -0.0000
vn 0.2113 -0.1269 -0.9692
vn 0.0915 -0.1451 -0.9852
vn 0.0431 -0.3965 -0.9170
vn 0.0019 -0.5854 -0.8107
vn -0.8133 -0.5818 -0.0000
vn -0.9736 -0.2283 -0.0000
vn -0.9986 0.0528 -0.0000
vn -0.8937 -0.4486 -0.0000
vn -0.9998 -0.0192 -0.0000
vn 0.4046 -0.0000 -0.9145
vn 0.0052 -0.5880 -0.8089
vn 0.0020 -0.4361 -0.8999
vn 0.3590 -0.0756 -0.9303
vn -0.0012 0.3580 0.9337
vn -0.0019 0.5735 0.8192
vn 0.9995 -0.0002 -0.0317
vn 0.8227 0.5678 -0.0282
vn 0.9736 0.2264 -0.0281
vn 0.9993 -0.0283 -0.0229
vn 0.8948 0.4457 -0.0278
vn 0.0948 0.9953 -0.0173
vn 0.9993 0.0199 -0.0308
vn 0.9995 0.0001 -0.0324
vn -0.0931 0.9945 -0.0469
vn -0.0198 -0.9867 -0.1611
vn 0.0100 0.9991 0.0423
vn 0.0015 0.9906 0.1369
vn 0.9982 -0.0521 -0.0312
vn 0.0149 0.0051 0.9999
vn 0.7483 0.6530 0.1169
vn -0.6655 0.7186 0.2019
vn -0.8373 0.5433 0.0617
vn -0.8989 -0.4360 0.0438
vn -0.8263 -0.5617 0.0401
vn -0.1065 -0.9942 -0.0175
vn -0.0472 0.9982 -0.0378
vn 0.0020 -0.4337 -0.9011
vn 0.0052 -0.5890 -0.8081
vn -1.0000 -0.0022 -0.0000
vn -0.9999 0.0131 -0.0000
vn 0.9965 0.0280 0.0793
vn 0.9992 0.0071 0.0385
vn 0.8771 0.4787 0.0408
vn 0.8541 0.5012 0.1389
vn 0.3598 -0.0378 -0.9323
vn 0.0019 -0.5870 -0.8096
vn 0.0424 -0.4368 -0.8985
vn 0.0905 -0.2069 -0.9742
vn 0.2098 -0.1726 -0.9624
vn 0.1499 -0.2054 -0.9671
vn 0.9967 0.0004 0.0810
vn -0.9666 -0.2176 0.1351
vn 0.9736 0.2264 -0.0294
vn 0.1515 -0.1440 -0.9779
vn 0.2613 -0.1704 -0.9501
vn 0.9994 0.0199 -0.0296
vn 0.2631 -0.1252 -0.9566
vn -0.0022 1.0000 -0.0000
vn 0.0022 -1.0000 -0.0000
vn -0.9897 -0.1431 -0.0000
vn -0.9925 0.1222 -0.0000
vn -0.8473 -0.5311 -0.0000
vn -0.8425 0.5387 -0.0000
vt 0.811928 0.974810
vt 0.811928 1.000000
vt 1.000000 1.000000
vt 1.000000 0.974810
vt 0.000000 0.974810
vt 0.000000 0.974810
vt 0.000000 1.000000
vt 1.000000 0.398139
vt 1.000000 0.000000
vt 1.000000 0.398139
vt 1.000000 0.398139
vt 1.000000 0.000000
vt 1.000000 0.398139
vt 1.000000 0.398139
vt 0.000000 0.398139
vt 0.000000 0.000000
vt 0.000000 0.398139
vt 0.000000 1.000000
vt 1.000000 0.974810
vt 0.000000 0.398139
vt 0.000000 0.411184
vt 0.811928 0.411184
vt 0.811928 0.398139
vt 1.000000 0.411184
vt 1.000000 0.411184
vt 0.000000 0.411184
vt 0.000000 0.411184
vt 0.000000 0.930121
vt 1.000000 0.411184
vt 1.000000 0.411184
vt 0.811928 0.974810
vt 1.000000 0.974810
vt 0.000000 0.974810
vt 1.000000 0.398139
vt 0.000000 0.398139
vt 0.000000 0.398139
vt 1.000000 0.974810
vt 1.000000 0.974810
vt 1.000000 1.000000
vt 0.811928 0.398139
vt 1.000000 0.398139
vt 0.000000 0.942629
vt 1.000000 0.974810
vt 0.000000 0.398139
vt 1.000000 0.398139
vt 0.811928 0.000000
vt 0.614679 0.212648
vt 0.625000 0.212648
vt 0.625000 0.250000
vt 0.614679 0.250000
vt 0.614679 0.442575
vt 0.625000 0.442575
vt 0.625000 0.500000
vt 0.614679 0.500000
vt 0.614679 0.537352
vt 0.625000 0.537352
vt 0.625000 0.750000
vt 0.614679 0.750000
vt 0.614679 0.928451
vt 0.625000 0.928451
vt 0.625000 1.000000
vt 0.614679 1.000000
vt 0.317575 0.537352
vt 0.375000 0.537352
vt 0.375000 0.750000
vt 0.317575 0.750000
vt 0.803451 0.537352
vt 0.875000 0.537352
vt 0.875000 0.750000
vt 0.803451 0.750000
vt 0.501720 0.537352
vt 0.501720 0.750000
vt 0.501720 0.442575
vt 0.501720 0.500000
vt 0.501720 0.212648
vt 0.501720 0.250000
vt 0.501720 0.000000
vt 0.614679 0.000000
vt 0.803451 0.500000
vt 0.875000 0.500000
vt 0.317575 0.500000
vt 0.375000 0.500000
vt 0.625000 0.000000
vt 0.375000 0.000000
vt 0.375000 0.212648
vt 0.375000 0.250000
vt 0.375000 0.442575
vt 0.375000 0.928451
vt 0.501720 0.928451
vt 0.501720 1.000000
vt 0.375000 1.000000
vt 0.501720 0.807425
vt 0.375000 0.807425
vt 0.196549 0.500000
vt 0.196549 0.537352
vt 0.682425 0.500000
vt 0.682425 0.537352
vt 0.614679 0.321549
vt 0.682425 0.750000
vt 0.196549 0.750000
vt 0.625000 0.807425
vt 0.614679 0.807425
vt 0.625000 0.321549
vt 0.125000 0.537352
vt 0.125000 0.750000
vt 0.501720 0.321549
vt 0.125000 0.500000
vt 0.375000 0.321549
vt 0.375000 0.375000
vt 0.625000 0.375000
vt 0.375000 0.875000
vt 0.625000 0.875000
vt 0.250000 0.500000
vt 0.250000 0.750000
vt 0.750000 0.500000
vt 0.750000 0.750000
s 0
f 90/1/1 25/2/1 4/3/1 81/4/1
f 91/5/2 88/6/2 6/7/2 37/7/2
f 180/8/3 140/8/3 7/9/3 169/9/3
f 168/10/4 141/11/4 9/9/4 157/12/4
f 141/11/5 142/13/5 11/9/5 9/9/5
f 142/13/6 143/14/6 13/9/6 11/9/6
f 25/2/7 3/7/7 15/7/7 26/2/7
f 14/3/8 12/3/8 21/3/8 23/3/8
f 136/15/9 5/16/9 17/16/9 137/17/9
f 158/3/10 8/3/10 19/3/10 159/3/10
f 37/7/11 6/7/11 18/7/11 39/18/11
f 12/3/12 10/3/12 20/3/12 21/3/12
f 85/4/13 14/3/13 23/3/13 86/19/13
f 170/3/14 4/3/14 16/3/14 171/3/14
f 4/3/7 25/2/7 26/2/7 16/3/7
f 87/5/2 3/7/2 25/2/2 90/1/2
f 135/20/15 27/21/15 36/22/15 138/23/15
f 143/14/13 33/24/13 35/25/13 144/13/13
f 88/6/9 29/26/9 34/27/9 89/28/9
f 84/4/16 85/4/16 33/24/16 32/25/16
f 83/4/17 84/4/17 32/25/17 31/25/17
f 166/4/18 83/4/18 31/25/18 160/25/18
f 178/4/19 82/4/19 30/25/19 172/29/19
f 145/15/15 136/15/15 29/26/15 40/26/15
f 138/23/20 36/22/20 28/30/20 139/14/20
f 135/20/15 145/15/15 40/26/15 27/21/15
f 3/7/11 37/7/11 39/18/11 15/7/11
f 87/5/2 91/5/2 37/7/2 3/7/2
f 101/31/21 92/32/21 44/3/21 65/2/21
f 102/33/22 77/7/22 46/7/22 99/33/22
f 179/13/22 173/9/22 47/9/22 151/13/22
f 167/34/23 161/9/23 49/9/23 152/34/23
f 152/34/24 49/9/24 51/9/24 153/34/24
f 153/34/25 51/9/25 53/9/25 154/14/25
f 65/2/26 66/2/26 55/7/26 43/7/26
f 54/3/27 63/3/27 61/3/27 52/3/27
f 147/35/28 148/36/28 57/16/28 45/16/28
f 162/3/29 163/3/29 59/3/29 48/3/29
f 77/7/30 79/18/30 58/7/30 46/7/30
f 52/3/31 61/3/31 60/3/31 50/3/31
f 96/37/32 97/38/32 63/3/32 54/3/32
f 174/39/33 175/39/33 56/3/33 44/3/33
f 44/3/34 56/3/34 66/2/34 65/2/34
f 98/5/22 101/31/22 65/2/22 43/7/22
f 146/15/22 149/40/22 76/22/22 67/21/22
f 154/14/35 155/41/35 75/25/35 73/24/35
f 99/33/36 100/42/36 74/27/36 69/26/36
f 95/43/22 72/25/22 73/24/22 96/37/22
f 94/4/22 71/25/22 72/25/22 95/43/22
f 165/32/37 164/25/37 71/25/37 94/4/37
f 177/32/38 176/29/38 70/25/38 93/32/38
f 156/44/22 80/26/22 69/26/22 147/35/22
f 149/40/21 150/45/21 68/30/21 76/22/21
f 146/15/22 67/21/22 80/26/22 156/44/22
f 43/7/39 55/7/39 79/18/39 77/7/39
f 98/5/22 43/7/22 77/7/22 102/33/22
f 24/46/40 2/9/40 42/9/40 64/46/40
f 38/16/40 1/16/40 41/16/40 78/16/40
f 169/9/40 7/9/40 47/9/40 173/9/40
f 157/12/40 9/9/40 49/9/40 161/9/40
f 9/9/40 11/9/40 51/9/40 49/9/40
f 11/9/40 13/9/40 53/9/40 51/9/40
f 26/2/22 15/7/22 55/7/22 66/2/22
f 137/17/22 17/16/22 57/16/22 148/36/22
f 39/18/22 18/7/22 58/7/22 79/18/22
f 171/3/22 16/3/22 56/3/22 175/39/22
f 159/3/22 19/3/22 59/3/22 163/3/22
f 21/3/22 20/3/22 60/3/22 61/3/22
f 86/19/22 23/3/22 63/3/22 97/38/22
f 23/3/22 21/3/22 61/3/22 63/3/22
f 17/16/40 5/16/40 45/16/40 57/16/40
f 13/9/40 22/9/40 62/9/40 53/9/40
f 1/16/40 24/46/40 64/46/40 41/16/40
f 16/3/22 26/2/22 66/2/22 56/3/22
f 89/28/41 34/27/41 74/27/41 100/42/41
f 144/13/22 35/25/22 75/25/22 155/41/22
f 5/16/40 38/16/40 78/16/40 45/16/40
f 15/7/22 39/18/22 79/18/22 55/7/22
f 18/7/42 89/28/42 100/42/42 58/7/42
f 35/25/22 86/19/22 97/38/22 75/25/22
f 67/21/22 98/5/22 102/33/22 80/26/22
f 174/39/43 177/32/43 93/32/43 48/3/43
f 162/3/44 165/32/44 94/4/44 50/3/44
f 50/3/45 94/4/45 95/43/45 52/3/45
f 52/3/46 95/43/46 96/37/46 54/3/46
f 46/7/47 58/7/47 100/42/47 99/33/47
f 67/21/22 76/22/22 101/31/22 98/5/22
f 73/24/48 75/25/48 97/38/48 96/37/48
f 80/26/22 102/33/22 99/33/22 69/26/22
f 76/22/21 68/30/21 92/32/21 101/31/21
f 27/21/2 40/26/2 91/5/2 87/5/2
f 170/3/19 8/3/19 82/4/19 178/4/19
f 158/3/18 10/3/18 83/4/18 166/4/18
f 10/3/49 12/3/49 84/4/49 83/4/49
f 12/3/50 14/3/50 85/4/50 84/4/50
f 6/7/9 88/6/9 89/28/9 18/7/9
f 27/21/2 87/5/2 90/1/2 36/22/2
f 33/24/13 85/4/13 86/19/13 35/25/13
f 40/26/2 29/26/2 88/6/2 91/5/2
f 36/22/1 90/1/1 81/4/1 28/30/1
f 120/47/9 116/48/9 106/49/9 112/50/9
f 186/51/51 182/52/51 110/53/51 113/54/51
f 119/55/13 118/56/13 108/57/13 114/58/13
f 193/59/40 192/60/40 104/61/40 111/62/40
f 188/63/2 117/64/2 107/65/2 183/66/2
f 199/67/22 116/68/22 104/69/22 192/70/22
f 133/64/13 134/71/13 131/72/13 132/65/13
f 107/65/2 117/64/2 133/64/2 132/65/2
f 189/73/51 186/51/51 113/54/51 122/74/51
f 125/75/9 120/47/9 112/50/9 121/76/9
f 124/77/9 111/78/9 120/47/9 125/75/9
f 122/74/13 113/54/13 119/55/13 126/71/13
f 196/79/22 106/80/22 116/68/22 199/67/22
f 181/81/2 109/82/2 117/64/2 188/63/2
f 113/54/13 110/53/13 118/56/13 119/55/13
f 111/78/9 104/83/9 116/48/9 120/47/9
f 109/82/13 122/74/13 126/71/13 117/64/13
f 103/84/9 124/77/9 125/75/9 115/85/9
f 115/85/9 125/75/9 121/76/9 105/86/9
f 181/87/51 189/73/51 122/74/51 109/82/51
f 117/64/52 126/71/52 134/71/52 133/64/52
f 197/88/40 195/89/40 124/90/40 103/91/40
f 130/71/13 127/55/13 128/58/13 129/72/13
f 119/55/2 114/58/2 128/58/2 127/55/2
f 126/71/40 119/55/40 127/55/40 130/71/40
f 123/72/22 126/71/22 130/71/22 129/72/22
f 123/72/40 107/65/40 132/65/40 131/72/40
f 126/71/22 123/72/22 131/72/22 134/71/22
f 22/9/22 144/13/22 155/41/22 62/9/22
f 34/27/22 137/17/22 148/36/22 74/27/22
f 41/16/22 146/15/22 156/44/22 78/16/22
f 64/46/21 42/9/21 150/45/21 149/40/21
f 78/16/22 156/44/22 147/35/22 45/16/22
f 53/9/53 62/9/53 155/41/53 154/14/53
f 41/16/22 64/46/22 149/40/22 146/15/22
f 69/26/28 74/27/28 148/36/28 147/35/28
f 72/25/54 153/34/54 154/14/54 73/24/54
f 71/25/55 152/34/55 153/34/55 72/25/55
f 164/25/56 167/34/56 152/34/56 71/25/56
f 176/29/57 179/13/57 151/13/57 70/25/57
f 1/16/15 38/16/15 145/15/15 135/20/15
f 24/46/58 138/23/58 139/14/58 2/9/58
f 38/16/15 5/16/15 136/15/15 145/15/15
f 13/9/13 143/14/13 144/13/13 22/9/13
f 1/16/15 135/20/15 138/23/15 24/46/15
f 29/26/9 136/15/9 137/17/9 34/27/9
f 32/25/59 33/24/59 143/14/59 142/13/59
f 31/25/60 32/25/60 142/13/60 141/11/60
f 160/25/61 31/25/61 141/11/61 168/10/61
f 172/29/62 30/25/62 140/8/62 180/8/62
f 30/25/63 160/25/63 168/10/63 140/8/63
f 70/25/64 151/13/64 167/34/64 164/25/64
f 8/3/18 158/3/18 166/4/18 82/4/18
f 48/3/65 93/32/65 165/32/65 162/3/65
f 20/3/22 159/3/22 163/3/22 60/3/22
f 7/9/40 157/12/40 161/9/40 47/9/40
f 93/32/23 70/25/23 164/25/23 165/32/23
f 50/3/66 60/3/66 163/3/66 162/3/66
f 151/13/23 47/9/23 161/9/23 167/34/23
f 82/4/18 166/4/18 160/25/18 30/25/18
f 10/3/10 158/3/10 159/3/10 20/3/10
f 140/8/67 168/10/67 157/12/67 7/9/67
f 28/30/68 172/29/68 180/8/68 139/14/68
f 68/30/22 150/45/22 179/13/22 176/29/22
f 4/3/19 170/3/19 178/4/19 81/4/19
f 44/3/22 92/32/22 177/32/22 174/39/22
f 19/3/22 171/3/22 175/39/22 59/3/22
f 2/9/40 169/9/40 173/9/40 42/9/40
f 92/32/22 68/30/22 176/29/22 177/32/22
f 48/3/69 59/3/69 175/39/69 174/39/69
f 150/45/22 42/9/22 173/9/22 179/13/22
f 81/4/19 178/4/19 172/29/19 28/30/19
f 8/3/14 170/3/14 171/3/14 19/3/14
f 139/14/70 180/8/70 169/9/70 2/9/70
f 107/65/40 123/72/40 190/92/40 183/93/40
f 186/51/71 189/73/71 204/73/71 202/51/71
f 191/94/2 181/81/2 188/63/2 194/95/2
f 110/53/22 182/96/22 187/97/22 118/56/22
f 198/98/2 186/51/2 202/51/2 201/98/2
f 118/56/22 187/97/22 184/99/22 108/57/22
f 194/95/2 188/63/2 183/66/2 197/100/2
f 114/58/40 108/57/40 184/101/40 185/102/40
f 198/98/51 196/103/51 182/52/51 186/51/51
f 112/50/51 106/49/51 196/103/51 198/98/51
f 115/104/2 194/95/2 197/100/2 103/105/2
f 121/76/51 112/50/51 198/98/51 200/106/51
f 105/107/2 191/94/2 194/95/2 115/104/2
f 105/86/51 121/76/51 200/106/51 191/108/51
f 183/93/40 190/92/40 195/89/40 197/88/40
f 182/96/22 196/79/22 199/67/22 187/97/22
f 187/97/22 199/67/22 192/70/22 184/99/22
f 185/102/40 184/101/40 192/60/40 193/59/40
f 206/108/51 203/106/51 204/73/51 205/87/51
f 203/106/51 201/98/51 202/51/51 204/73/51
f 181/81/22 191/94/22 206/94/22 205/81/22
f 191/108/72 200/106/72 203/106/72 206/108/72
f 189/73/71 181/87/71 205/87/71 204/73/71
f 200/106/72 198/98/72 201/98/72 203/106/72
f 207/91/40 208/61/40 225/61/40 224/91/40
f 215/109/73 216/110/73 214/53/73 213/82/73
f 214/53/22 212/57/22 222/57/22 219/53/22
f 217/111/40 218/112/40 208/61/40 207/91/40
f 215/113/2 213/82/2 211/65/2 217/114/2
f 216/115/22 210/80/22 208/69/22 218/116/22
f 214/53/22 216/115/22 218/116/22 212/57/22
f 209/107/2 215/113/2 217/114/2 207/105/2
f 211/65/40 212/57/40 218/112/40 217/111/40
f 209/86/74 210/49/74 216/110/74 215/109/74
f 220/82/13 219/53/13 222/57/13 221/65/13
f 213/82/75 214/53/75 219/53/75 220/82/75
f 212/57/40 211/65/40 221/65/40 222/57/40
f 211/65/2 213/82/2 220/82/2 221/65/2
f 224/84/9 225/83/9 226/49/9 223/86/9
f 208/69/22 210/80/22 226/80/22 225/69/22
f 209/107/2 207/105/2 224/105/2 223/107/2
f 210/49/76 209/86/76 223/86/76 226/49/76
f 294/1/1 285/4/1 228/3/1 241/2/1
f 295/5/2 253/7/2 229/7/2 292/6/2
f 368/8/77 169/9/77 7/9/77 332/8/77
f 358/10/78 157/12/78 9/9/78 333/11/78
f 333/11/79 9/9/79 11/9/79 334/13/79
f 334/13/80 11/9/80 13/9/80 335/14/80
f 241/2/40 242/2/40 234/7/40 227/7/40
f 233/3/81 240/3/81 239/3/81 232/3/81
f 328/15/9 329/17/9 17/16/9 5/16/9
f 349/3/82 350/3/82 237/3/82 230/3/82
f 253/7/83 254/18/83 236/7/83 229/7/83
f 232/3/84 239/3/84 238/3/84 231/3/84
f 289/4/13 290/19/13 240/3/13 233/3/13
f 359/3/85 360/3/85 235/3/85 228/3/85
f 228/3/40 235/3/40 242/2/40 241/2/40
f 291/5/2 294/1/2 241/2/2 227/7/2
f 327/20/86 330/23/86 252/22/86 243/21/86
f 335/14/13 336/13/13 251/25/13 249/24/13
f 292/6/9 293/28/9 250/27/9 245/26/9
f 288/4/87 248/25/87 249/24/87 289/4/87
f 287/4/88 247/25/88 248/25/88 288/4/88
f 356/4/18 351/25/18 247/25/18 287/4/18
f 366/4/19 361/29/19 246/25/19 286/4/19
f 337/15/86 255/26/86 245/26/86 328/15/86
f 330/23/89 331/14/89 244/30/89 252/22/89
f 327/20/86 243/21/86 255/26/86 337/15/86
f 227/7/83 234/7/83 254/18/83 253/7/83
f 291/5/2 227/7/2 253/7/2 295/5/2
f 305/31/21 270/2/21 257/3/21 296/32/21
f 306/33/22 303/33/22 258/7/22 282/7/22
f 367/13/22 343/13/22 47/9/22 173/9/22
f 357/34/23 344/34/23 49/9/23 161/9/23
f 344/34/90 345/34/90 51/9/90 49/9/90
f 345/34/91 346/14/91 53/9/91 51/9/91
f 270/2/92 256/7/92 263/7/92 271/2/92
f 262/3/93 261/3/93 268/3/93 269/3/93
f 339/35/28 45/16/28 57/16/28 340/36/28
f 352/3/94 259/3/94 266/3/94 353/3/94
f 282/7/95 258/7/95 265/7/95 283/18/95
f 261/3/96 260/3/96 267/3/96 268/3/96
f 300/37/97 262/3/97 269/3/97 301/38/97
f 362/39/98 257/3/98 264/3/98 363/39/98
f 257/3/99 270/2/99 271/2/99 264/3/99
f 302/5/22 256/7/22 270/2/22 305/31/22
f 338/15/22 272/21/22 281/22/22 341/40/22
f 346/14/100 278/24/100 280/25/100 347/41/100
f 303/33/101 274/26/101 279/27/101 304/42/101
f 299/43/22 300/37/22 278/24/22 277/25/22
f 298/4/22 299/43/22 277/25/22 276/25/22
f 355/32/102 298/4/102 276/25/102 354/25/102
f 365/32/103 297/32/103 275/25/103 364/29/103
f 348/44/22 339/35/22 274/26/22 284/26/22
f 341/40/21 281/22/21 273/30/21 342/45/21
f 338/15/22 348/44/22 284/26/22 272/21/22
f 256/7/104 282/7/104 283/18/104 263/7/104
f 302/5/22 306/33/22 282/7/22 256/7/22
f 242/2/22 271/2/22 263/7/22 234/7/22
f 329/17/22 340/36/22 57/16/22 17/16/22
f 254/18/22 283/18/22 265/7/22 236/7/22
f 360/3/22 363/39/22 264/3/22 235/3/22
f 350/3/22 353/3/22 266/3/22 237/3/22
f 239/3/22 268/3/22 267/3/22 238/3/22
f 290/19/22 301/38/22 269/3/22 240/3/22
f 240/3/22 269/3/22 268/3/22 239/3/22
f 235/3/22 264/3/22 271/2/22 242/2/22
f 293/28/105 304/42/105 279/27/105 250/27/105
f 336/13/22 347/41/22 280/25/22 251/25/22
f 234/7/22 263/7/22 283/18/22 254/18/22
f 236/7/106 265/7/106 304/42/106 293/28/106
f 251/25/22 280/25/22 301/38/22 290/19/22
f 272/21/22 284/26/22 306/33/22 302/5/22
f 362/39/107 259/3/107 297/32/107 365/32/107
f 352/3/108 260/3/108 298/4/108 355/32/108
f 260/3/109 261/3/109 299/43/109 298/4/109
f 261/3/110 262/3/110 300/37/110 299/43/110
f 258/7/111 303/33/111 304/42/111 265/7/111
f 272/21/22 302/5/22 305/31/22 281/22/22
f 278/24/112 300/37/112 301/38/112 280/25/112
f 284/26/22 274/26/22 303/33/22 306/33/22
f 281/22/21 305/31/21 296/32/21 273/30/21
f 243/21/2 291/5/2 295/5/2 255/26/2
f 359/3/19 366/4/19 286/4/19 230/3/19
f 349/3/18 356/4/18 287/4/18 231/3/18
f 231/3/113 287/4/113 288/4/113 232/3/113
f 232/3/114 288/4/114 289/4/114 233/3/114
f 229/7/9 236/7/9 293/28/9 292/6/9
f 243/21/2 252/22/2 294/1/2 291/5/2
f 249/24/13 251/25/13 290/19/13 289/4/13
f 255/26/2 295/5/2 292/6/2 245/26/2
f 252/22/1 244/30/1 285/4/1 294/1/1
f 318/47/9 311/50/9 308/49/9 314/48/9
f 371/51/115 312/54/115 310/53/115 370/52/115
f 317/55/13 114/58/13 108/57/13 316/56/13
f 373/63/2 183/66/2 107/65/2 315/64/2
f 379/67/22 192/70/22 104/69/22 314/68/22
f 325/64/13 132/65/13 131/72/13 326/71/13
f 107/65/2 132/65/2 325/64/2 315/64/2
f 374/73/115 320/74/115 312/54/115 371/51/115
f 321/75/9 319/76/9 311/50/9 318/47/9
f 124/77/9 321/75/9 318/47/9 111/78/9
f 320/74/13 322/71/13 317/55/13 312/54/13
f 377/79/22 379/67/22 314/68/22 308/80/22
f 369/81/2 373/63/2 315/64/2 309/82/2
f 312/54/13 317/55/13 316/56/13 310/53/13
f 111/78/9 318/47/9 314/48/9 104/83/9
f 309/82/13 315/64/13 322/71/13 320/74/13
f 103/84/9 313/85/9 321/75/9 124/77/9
f 313/85/9 307/86/9 319/76/9 321/75/9
f 369/87/115 309/82/115 320/74/115 374/73/115
f 315/64/116 325/64/116 326/71/116 322/71/116
f 324/71/13 129/72/13 128/58/13 323/55/13
f 317/55/2 323/55/2 128/58/2 114/58/2
f 322/71/7 324/71/7 323/55/7 317/55/7
f 123/72/22 129/72/22 324/71/22 322/71/22
f 322/71/22 326/71/22 131/72/22 123/72/22
f 22/9/22 62/9/22 347/41/22 336/13/22
f 250/27/22 279/27/22 340/36/22 329/17/22
f 41/16/22 78/16/22 348/44/22 338/15/22
f 64/46/21 341/40/21 342/45/21 42/9/21
f 78/16/22 45/16/22 339/35/22 348/44/22
f 53/9/53 346/14/53 347/41/53 62/9/53
f 41/16/22 338/15/22 341/40/22 64/46/22
f 274/26/28 339/35/28 340/36/28 279/27/28
f 277/25/117 278/24/117 346/14/117 345/34/117
f 276/25/118 277/25/118 345/34/118 344/34/118
f 354/25/119 276/25/119 344/34/119 357/34/119
f 364/29/120 275/25/120 343/13/120 367/13/120
f 1/16/86 327/20/86 337/15/86 38/16/86
f 24/46/121 2/9/121 331/14/121 330/23/121
f 38/16/86 337/15/86 328/15/86 5/16/86
f 13/9/13 22/9/13 336/13/13 335/14/13
f 1/16/86 24/46/86 330/23/86 327/20/86
f 245/26/9 250/27/9 329/17/9 328/15/9
f 248/25/122 334/13/122 335/14/122 249/24/122
f 247/25/123 333/11/123 334/13/123 248/25/123
f 351/25/124 358/10/124 333/11/124 247/25/124
f 361/29/125 368/8/125 332/8/125 246/25/125
f 246/25/126 332/8/126 358/10/126 351/25/126
f 275/25/127 354/25/127 357/34/127 343/13/127
f 230/3/18 286/4/18 356/4/18 349/3/18
f 259/3/128 352/3/128 355/32/128 297/32/128
f 238/3/22 267/3/22 353/3/22 350/3/22
f 297/32/23 355/32/23 354/25/23 275/25/23
f 260/3/129 352/3/129 353/3/129 267/3/129
f 343/13/23 357/34/23 161/9/23 47/9/23
f 286/4/18 246/25/18 351/25/18 356/4/18
f 231/3/82 238/3/82 350/3/82 349/3/82
f 332/8/130 7/9/130 157/12/130 358/10/130
f 244/30/131 331/14/131 368/8/131 361/29/131
f 273/30/22 364/29/22 367/13/22 342/45/22
f 228/3/19 285/4/19 366/4/19 359/3/19
f 257/3/22 362/39/22 365/32/22 296/32/22
f 237/3/22 266/3/22 363/39/22 360/3/22
f 296/32/22 365/32/22 364/29/22 273/30/22
f 259/3/132 362/39/132 363/39/132 266/3/132
f 342/45/22 367/13/22 173/9/22 42/9/22
f 285/4/19 244/30/19 361/29/19 366/4/19
f 230/3/85 237/3/85 360/3/85 359/3/85
f 331/14/133 2/9/133 169/9/133 368/8/133
f 371/51/134 382/51/134 384/73/134 374/73/134
f 375/94/2 376/95/2 373/63/2 369/81/2
f 310/53/22 316/56/22 372/97/22 370/96/22
f 378/98/2 381/98/2 382/51/2 371/51/2
f 316/56/22 108/57/22 184/99/22 372/97/22
f 376/95/2 197/100/2 183/66/2 373/63/2
f 378/98/115 371/51/115 370/52/115 377/103/115
f 311/50/115 378/98/115 377/103/115 308/49/115
f 313/104/2 103/105/2 197/100/2 376/95/2
f 319/76/115 380/106/115 378/98/115 311/50/115
f 307/107/2 313/104/2 376/95/2 375/94/2
f 307/86/115 375/108/115 380/106/115 319/76/115
f 370/96/22 372/97/22 379/67/22 377/79/22
f 372/97/22 184/99/22 192/70/22 379/67/22
f 386/108/115 385/87/115 384/73/115 383/106/115
f 383/106/115 384/73/115 382/51/115 381/98/115
f 369/81/22 385/81/22 386/94/22 375/94/22
f 375/108/135 386/108/135 383/106/135 380/106/135
f 374/73/134 384/73/134 385/87/134 369/87/134
f 380/106/135 383/106/135 381/98/135 378/98/135
f 391/109/136 389/82/136 390/53/136 392/110/136
f 390/53/22 393/53/22 222/57/22 212/57/22
f 391/113/2 217/114/2 211/65/2 389/82/2
f 392/115/22 218/116/22 208/69/22 388/80/22
f 390/53/22 212/57/22 218/116/22 392/115/22
f 387/107/2 207/105/2 217/114/2 391/113/2
f 387/86/137 391/109/137 392/110/137 388/49/137
f 394/82/13 221/65/13 222/57/13 393/53/13
f 389/82/138 394/82/138 393/53/138 390/53/138
f 211/65/2 221/65/2 394/82/2 389/82/2
f 224/84/9 395/86/9 396/49/9 225/83/9
f 208/69/22 225/69/22 396/80/22 388/80/22
f 387/107/2 395/107/2 224/105/2 207/105/2
f 388/49/139 396/49/139 395/86/139 387/86/139
